# xmcd CD database file
#
# Track frame offsets:
#	183
#	12783
#	23283
#	34758
#	48633
#	60333
#	69483
#	78558
#	87333
#	93558
#	97983
#	103533
#	113433
#	122133
#	131058
#	144183
#	151008
#	155808
#	165858
#	176058
#	187758
#	193533
#	199158
#	206958
#	218133
#	229008
#	235683
#	243333
#	256308
#	264333
#	272433
#	276333
#	281583
#	300858
#	310008
#	314358
#	329733
#
# Disc length: 4526 seconds
#
# Revision: 0
# Processed by: cddbd v1.5.1PL0 Copyright (c) Steve Scherf et al.
# Submitted via: CDex 1.51
#
DISCID=ee11ac25
DTITLE=Sonoton Authentic Series - SAS 044 - Authentic  South America 3 - Brazil
DYEAR=1993
DGENRE=Contentum
TTITLE0=Carnival, Samba and Batucada - Acredite se quiser
TTITLE1=Carnival, Samba and Batucada - No reino da fantasia
TTITLE2=Carnival, Samba and Batucada - Grandes amores
TTITLE3=Carnival, Samba and Batucada - Samba das sereias
TTITLE4=Carnival, Samba and Batucada - Samba das sereias 2
TTITLE5=Carnival, Samba and Batucada - Obrigado
TTITLE6=Carnival, Samba and Batucada - Rio Abaixo 1
TTITLE7=Carnival, Samba and Batucada - Rio Abaixo 2
TTITLE8=Carnival, Samba and Batucada - Rio Abaixo 3
TTITLE9=Carnival, Samba and Batucada - Ritmo de carnival 1
TTITLE10=Carnival, Samba and Batucada - Ritmo de carnival 2
TTITLE11=Carnival, Samba and Batucada - Ritmo de carnival 3
TTITLE12=Carnival, Samba and Batucada - Ritmo de carnival 4
TTITLE13=Carnival, Samba and Batucada - Ritmo de carnival 5
TTITLE14=Urban Styles - Chorando no bexiga 1
TTITLE15=Urban Styles - Chorando no bexiga 2
TTITLE16=Urban Styles - Chorando no bexiga 3
TTITLE17=Urban Styles - Chorando no bexiga 4
TTITLE18=Urban Styles - Samba do Sion
TTITLE19=Urban Styles - A Nova estrela 1
TTITLE20=Urban Styles - A Nova estrela 2
TTITLE21=Urban Styles - A Nova estrela 3
TTITLE22=Urban Styles - Axe
TTITLE23=Urban Styles - Assim Assim 1
TTITLE24=Urban Styles - Assim Assim 2
TTITLE25=Urban Styles - Assim Assim 3
TTITLE26=Urban Styles - Ritmo bossa nova
TTITLE27=Ethnic Specials - Capoeira 1
TTITLE28=Ethnic Specials - Capoeira 2
TTITLE29=Ethnic Specials - Legal 1
TTITLE30=Ethnic Specials - Legal 2
TTITLE31=Ethnic Specials - Legal 3
TTITLE32=Ethnic Specials - Iawekidi suya legend 1
TTITLE33=Ethnic Specials - Iawekidi suya legend 2
TTITLE34=Ethnic Specials - Iawekidi suya legend 3
TTITLE35=Ethnic Specials - Iawekidi suya legend 4
TTITLE36=Ethnic Specials - Iawekidi suya legend 5
EXTD=YEAR: 1993
EXTT0=
EXTT1=
EXTT2=
EXTT3=
EXTT4=
EXTT5=
EXTT6=
EXTT7=
EXTT8=
EXTT9=
EXTT10=
EXTT11=
EXTT12=
EXTT13=
EXTT14=
EXTT15=
EXTT16=
EXTT17=
EXTT18=
EXTT19=
EXTT20=
EXTT21=
EXTT22=
EXTT23=
EXTT24=
EXTT25=
EXTT26=
EXTT27=
EXTT28=
EXTT29=
EXTT30=
EXTT31=
EXTT32=
EXTT33=
EXTT34=
EXTT35=
EXTT36=
PLAYORDER=
